<?xml version="1.0" encoding="UTF-8"?>
<svg width="1200px" height="1200px" viewBox="0 0 1200 1200" version="1.1" xmlns="http://www.w3.org/2000/svg" xmlns:xlink="http://www.w3.org/1999/xlink">
    <!-- Generator: Sketch 52.4 (67378) - http://www.bohemiancoding.com/sketch -->
    <title>VueLogo</title>
    <desc>Created with Sketch.</desc>
    <g id="Page-1" stroke="none" stroke-width="1" fill="none" fill-rule="evenodd">
        <g id="Group-3-Copy-2">
            <g id="App-Icon-60-x-60" fill="#FFFFFF">
                <polygon id="App-Icon" points="0 0 1200 0 1200 1200 0 1200"></polygon>
            </g>
            <path d="M336.744726,745.2 L252.937852,745.2 C234.183773,696.70198 196.871529,599.902948 141,454.8 L239.458425,454.8 C249.226175,484.915706 268.566029,544.755108 297.478568,634.32 L300.408879,634.32 C310.176628,604.204294 329.907187,544.364892 359.601146,454.8 L448.096516,454.8 C429.733147,503.29802 392.616255,600.097052 336.744726,745.2 Z M604.536014,754 C561.167205,754 527.56665,742.853445 503.733341,720.56 C480.290741,698.266555 468.569617,666.977979 468.569617,626.693333 L468.569617,454.8 L559.409236,454.8 L559.409236,621.413333 C559.409236,640.186761 563.511629,653.875513 571.716539,662.48 C580.312159,671.084487 591.251874,675.386667 604.536014,675.386667 C618.210864,675.386667 629.345931,671.084487 637.941551,662.48 C646.146461,653.875513 650.248854,640.186761 650.248854,621.413333 L650.248854,454.8 L741.088473,454.8 L741.088473,626.693333 C741.088473,666.977979 729.367349,698.266555 705.924749,720.56 C682.48215,742.853445 648.686243,754 604.536014,754 Z M1048.27876,670.106667 C1024.05474,726.035835 980.491229,754 917.586921,754 C887.502252,754 860.543667,747.546731 836.710357,734.64 C812.877048,721.733269 794.12325,703.742338 780.4484,680.666667 C767.164261,657.590996 760.52229,630.995706 760.52229,600.88 C760.52229,570.764294 766.968908,544.169004 779.862338,521.093333 C792.755768,497.626549 810.337454,479.244511 832.607923,465.946667 C855.659812,452.648822 881.446285,446 909.968114,446 C938.489943,446 964.081064,452.453269 986.742243,465.36 C1009.40342,478.266731 1027.18046,496.64877 1040.07389,520.506667 C1053.35803,543.973451 1060,572.328723 1060,605.573333 L1060,624.346667 L851.947971,624.346667 C855.855071,641.946755 863.669153,655.83106 875.390453,666 C887.111753,676.16894 901.372453,681.253333 918.172983,681.253333 C943.959842,681.253333 962.127584,670.693439 972.676754,649.573333 C989.477283,654.26669 1014.6777,661.111066 1048.27876,670.106667 Z M911.7263,514.053333 C896.879321,514.053333 884.181437,518.159959 873.632267,526.373333 C863.083097,534.977821 855.855071,548.079912 851.947971,565.68 C877.34412,565.68 915.633125,565.68 966.816133,565.68 C965.644003,548.862138 959.978794,535.955601 949.820334,526.96 C939.661874,518.355513 926.96399,514.053333 911.7263,514.053333 Z" id="vue" fill="#000000"></path>
        </g>
    </g>
</svg>